<svg xmlns="http://www.w3.org/2000/svg" version="1.1" xmlns:xlink="http://www.w3.org/1999/xlink" xmlns:svgjs="http://svgjs.dev/svgjs" width="1500" height="1059" viewBox="0 0 1500 1059"><g transform="matrix(1,0,0,1,-0.21798505632523302,-1.7080645161290704)"><svg viewBox="0 0 351 248" data-background-color="#ffffff" preserveAspectRatio="xMidYMid meet" height="1059" width="1500" xmlns="http://www.w3.org/2000/svg" xmlns:xlink="http://www.w3.org/1999/xlink"><g id="tight-bounds" transform="matrix(1,0,0,1,0.05100850318009975,0.4000000000000057)"><svg viewBox="0 0 350.8979829936398 247.2" height="247.2" width="350.8979829936398"><g><svg viewBox="0 0 395.52 278.6352408351466" height="247.2" width="350.8979829936398"><g transform="matrix(1,0,0,1,0,206.9871688662241)"><svg viewBox="0 0 395.52 71.64807196892251" height="71.64807196892251" width="395.52"><g id="textblocktransform"><svg viewBox="0 0 395.52 71.64807196892251" height="71.64807196892251" width="395.52" id="textblock"><g><svg viewBox="0 0 395.52 71.64807196892251" height="71.64807196892251" width="395.52"><g transform="matrix(1,0,0,1,0,0)"><svg width="395.52" viewBox="1.7 -33.7 244.53 44.300000000000004" height="71.64807196892251" data-palette-color="#d2d6dc"><path d="M16.65 0.6L16.65 0.6Q12.5 0.6 9.1-1.28 5.7-3.15 3.7-6.78 1.7-10.4 1.7-15.65L1.7-15.65Q1.7-19.75 2.8-22.8 3.9-25.85 5.78-27.93 7.65-30 9.98-31.28 12.3-32.55 14.78-33.13 17.25-33.7 19.55-33.7L19.55-33.7Q23.75-33.7 27.15-31.85 30.55-30 32.55-26.4 34.55-22.8 34.55-17.55L34.55-17.55Q34.55-13.45 33.45-10.4 32.35-7.35 30.45-5.25 28.55-3.15 26.23-1.85 23.9-0.55 21.43 0.03 18.95 0.6 16.65 0.6ZM18.1-1.05L18.1-1.05Q21.1-1.05 23.23-2.5 25.35-3.95 26.68-6.25 28-8.55 28.63-11.25 29.25-13.95 29.25-16.4L29.25-16.4Q29.25-19.5 28.63-22.28 28-25.05 26.58-27.15 25.15-29.25 22.78-30.45 20.4-31.65 16.85-31.65L16.85-31.65Q13.5-30.5 11.3-28.15 9.1-25.8 8.05-22.75 7-19.7 7-16.4L7-16.4Q7-13.35 7.63-10.58 8.25-7.8 9.55-5.65 10.85-3.5 12.98-2.27 15.1-1.05 18.1-1.05ZM44.25 10.6L40 10.6 40-15.85Q40-17.6 39.52-18.68 39.05-19.75 38.45-20.38 37.85-21 37.4-21.3L37.4-21.3 40-23.2 44.25-19.4Q46.1-21.15 47.72-22.18 49.35-23.2 51.55-23.2L51.55-23.2Q52.7-23.2 54.12-22.68 55.55-22.15 56.92-20.83 58.3-19.5 59.17-17.1 60.05-14.7 60.05-10.95L60.05-10.95Q60.05-9.1 59.47-7.05 58.9-5 57.75-3.2 56.6-1.4 54.9-0.28 53.2 0.85 50.95 0.85L50.95 0.85Q49.5 0.85 47.82 0.3 46.15-0.25 44.25-1.5L44.25-1.5 44.25 10.6ZM49.6-1.55L49.6-1.55Q52.4-1.6 53.95-4.05 55.5-6.5 55.5-10.35L55.5-10.35Q55.5-14.65 54.2-17.45 52.9-20.25 51.05-20.85L51.05-20.85Q49.6-20.7 48.35-20.05 47.1-19.4 46.17-18.63 45.25-17.85 44.75-17.2 44.25-16.55 44.25-16.35L44.25-16.35 44.25-2.95Q47.2-1.55 49.6-1.55ZM69.15 0L65 0 65-22.6 69.15-22.6 69.15 0ZM67.05-27.05L67.05-27.05Q65.95-27.05 65.22-27.85 64.5-28.65 64.5-29.65L64.5-29.65Q64.5-30.75 65.22-31.5 65.95-32.25 67.05-32.25L67.05-32.25Q68.09-32.25 68.87-31.5 69.65-30.75 69.65-29.65L69.65-29.65Q69.65-28.65 68.87-27.85 68.09-27.05 67.05-27.05ZM81.14 0L76.89 0 76.89-15.7Q76.89-17.45 76.42-18.53 75.94-19.6 75.34-20.23 74.74-20.85 74.34-21.15L74.34-21.15 76.89-23.05 80.99-19.4Q82.84-21.15 84.47-22.18 86.09-23.2 88.29-23.2L88.29-23.2Q89.44-23.2 90.82-22.6 92.19-22 93.19-20.38 94.19-18.75 94.19-15.65L94.19-15.65 94.19 0 89.94 0 89.94-15.15Q89.94-17.5 89.12-18.78 88.29-20.05 86.09-20.05L86.09-20.05Q83.94-20.05 81.14-17.25L81.14-17.25 81.14 0ZM105.79 0L101.64 0 101.64-22.6 105.79-22.6 105.79 0ZM103.69-27.05L103.69-27.05Q102.59-27.05 101.87-27.85 101.14-28.65 101.14-29.65L101.14-29.65Q101.14-30.75 101.87-31.5 102.59-32.25 103.69-32.25L103.69-32.25Q104.74-32.25 105.52-31.5 106.29-30.75 106.29-29.65L106.29-29.65Q106.29-28.65 105.52-27.85 104.74-27.05 103.69-27.05ZM120.99 0.6L120.99 0.6Q118.19 0.6 115.89-0.7 113.59-2 112.24-4.53 110.89-7.05 110.89-10.65L110.89-10.65Q110.89-14.2 112.01-16.6 113.14-19 114.96-20.45 116.79-21.9 118.89-22.55 120.99-23.2 122.94-23.2L122.94-23.2Q125.79-23.2 128.09-21.9 130.39-20.6 131.74-18.1 133.09-15.6 133.09-11.95L133.09-11.95Q133.09-8.4 131.94-6 130.79-3.6 128.96-2.15 127.14-0.7 125.04-0.05 122.94 0.6 120.99 0.6ZM121.94-1.1L121.94-1.1Q123.69-1.1 124.94-2.05 126.19-3 126.96-4.53 127.74-6.05 128.11-7.8 128.49-9.55 128.49-11.2L128.49-11.2Q128.49-13.95 127.81-16.23 127.14-18.5 125.56-19.9 123.99-21.3 121.24-21.3L121.24-21.3Q118.24-20.15 116.84-17.3 115.44-14.45 115.44-11.2L115.44-11.2Q115.44-8.55 116.09-6.23 116.74-3.9 118.16-2.5 119.59-1.1 121.94-1.1ZM161.93 0L151.53 0 151.53-33.1 160.98-33.1Q164.63-33.1 167.46-32.27 170.28-31.45 171.91-29.75 173.53-28.05 173.53-25.3L173.53-25.3Q173.53-22.55 171.58-20.5 169.63-18.45 166.23-17.45L166.23-17.45Q170.98-16.55 173.21-14.28 175.43-12 175.43-9.3L175.43-9.3Q175.43-6.75 174.11-4.95 172.78-3.15 170.68-2.08 168.58-1 166.26-0.5 163.93 0 161.93 0L161.93 0ZM156.38-30.3L156.38-17.95 159.98-17.95Q163.28-17.95 165.13-18.98 166.98-20 167.73-21.65 168.48-23.3 168.48-25.05L168.48-25.05Q168.48-26.95 167.18-28.68 165.88-30.4 162.88-31.3L162.88-31.3Q161.48-31.3 159.58-31 157.68-30.7 156.38-30.3L156.38-30.3ZM160.93-1.75L160.93-1.75Q163.23-1.75 165.28-2.53 167.33-3.3 168.61-4.9 169.88-6.5 169.88-8.9L169.88-8.9Q169.88-11 168.58-12.73 167.28-14.45 165.08-15.48 162.88-16.5 160.18-16.5L160.18-16.5 156.38-16.5 156.38-2.25Q157.08-2.05 158.41-1.9 159.73-1.75 160.93-1.75ZM187.68 0.6L187.68 0.6Q186.53 0.6 185.16 0.03 183.78-0.55 182.78-2.18 181.78-3.8 181.78-6.85L181.78-6.85 181.78-22.6 186.03-22.6 186.03-6.6Q186.03-4.3 186.86-3.03 187.68-1.75 189.88-1.75L189.88-1.75Q191.03-1.75 192.33-2.65 193.63-3.55 194.83-4.95L194.83-4.95 194.83-22.6 199.08-22.6 199.08-6.7Q199.08-5 199.56-3.93 200.03-2.85 200.66-2.23 201.28-1.6 201.68-1.25L201.68-1.25 199.08 0.6 195.03-3.05Q193.18-1.3 191.53-0.35 189.88 0.6 187.68 0.6ZM224.03 0L205.48 0 205.48-1.5 218.83-20.95 206.53-20.5 206.03-22.6 223.38-22.6 223.38-21.2 210.08-1.8 223.53-2.35 224.03 0ZM246.23 0L227.68 0 227.68-1.5 241.03-20.95 228.73-20.5 228.23-22.6 245.58-22.6 245.58-21.2 232.28-1.8 245.73-2.35 246.23 0Z" opacity="1" transform="matrix(1,0,0,1,0,0)" fill="#d2d6dc" class="wordmark-text-0" data-fill-palette-color="primary" id="text-0"></path></svg></g></svg></g></svg></g></svg></g><g transform="matrix(1,0,0,1,111.1808058050233,0)"><svg viewBox="0 0 173.1583883899534 173.1583883899534" height="173.1583883899534" width="173.1583883899534"><g><svg></svg></g><g id="icon-0"><svg viewBox="0 0 173.1583883899534 173.1583883899534" height="173.1583883899534" width="173.1583883899534"><g><path d="M0 86.579c0-47.816 38.763-86.579 86.579-86.579 47.816 0 86.579 38.763 86.579 86.579 0 47.816-38.763 86.579-86.579 86.579-47.816 0-86.579-38.763-86.579-86.579zM86.579 166.697c44.248 0 80.118-35.87 80.118-80.118 0-44.248-35.87-80.118-80.118-80.118-44.248 0-80.118 35.87-80.118 80.118 0 44.248 35.87 80.118 80.118 80.118z" data-fill-palette-color="accent" fill="#d2d6dc" stroke="transparent"></path></g><g transform="matrix(1,0,0,1,36.559051279238794,38.94440491539392)"><svg viewBox="0 0 100.0402858314758 95.26957855916555" height="95.26957855916555" width="100.0402858314758"><g><svg xmlns="http://www.w3.org/2000/svg" xmlns:xlink="http://www.w3.org/1999/xlink" version="1.1" x="0" y="0" viewBox="15.4 16.9 69.19999999999999 65.9" enable-background="new 0 0 100 100" xml:space="preserve" height="95.26957855916555" width="100.0402858314758" class="icon-dxe-0" data-fill-palette-color="accent" id="dxe-0"><g fill="#d2d6dc" data-fill-palette-color="accent"><path fill="#d2d6dc" d="M71.4 82.8L50 71.5 28.6 82.8 32.7 59 15.4 42 39.3 38.5 50 16.9 60.7 38.6 84.6 42 67.3 58.9zM50 68.1L67.4 77.3 64.1 57.9 78.2 44.2 58.7 41.4 50 23.7 41.3 41.4 21.8 44.2 35.9 57.9 32.6 77.3z" data-fill-palette-color="accent"></path></g></svg></g></svg></g></svg></g></svg></g><g></g></svg></g><defs></defs></svg><rect width="350.8979829936398" height="247.2" fill="none" stroke="none" visibility="hidden"></rect></g></svg></g></svg>